# Blender v2.78 (sub 0) OBJ File: 'LifePickup.blend'
# www.blender.org
mtllib LifePickup.mtl
o Plane
v 0.314701 0.345392 0.039955
v 0.314439 0.547611 0.039955
v 0.153029 0.156092 0.050964
v 0.161268 0.642767 0.047592
v 0.338357 0.454849 0.047775
v 0.161671 0.447434 0.118425
v 0.252577 0.262279 0.046451
v 0.252847 0.611084 0.045892
v 0.257791 0.453208 0.089361
v 0.078004 0.592992 0.048581
v 0.072754 0.097674 0.050964
v 0.079656 0.439256 0.128651
v 0.328175 0.398631 0.046451
v 0.157788 0.296494 0.107190
v 0.254842 0.353118 0.080773
v 0.077248 0.267444 0.114019
v 0.328076 0.503201 0.045892
v 0.162162 0.553931 0.090762
v 0.254940 0.537278 0.075164
v 0.080000 0.526806 0.098657
v -0.314701 0.345392 0.039955
v -0.314439 0.547611 0.039955
v 0.000000 0.072009 0.052987
v 0.000000 0.508374 0.049709
v -0.153029 0.156092 0.050964
v -0.161268 0.642767 0.047592
v -0.338357 0.454849 0.047775
v 0.000000 0.422411 0.127311
v -0.161671 0.447434 0.118425
v -0.252577 0.262279 0.046451
v -0.252847 0.611084 0.045892
v -0.257791 0.453208 0.089361
v -0.078004 0.592992 0.048581
v -0.072754 0.097674 0.050964
v -0.079656 0.439256 0.128651
v -0.328175 0.398631 0.046451
v 0.000000 0.251849 0.112918
v -0.157788 0.296494 0.107190
v -0.254842 0.353118 0.080773
v -0.077248 0.267444 0.114019
v -0.328076 0.503201 0.045892
v 0.000000 0.480998 0.099908
v -0.162162 0.553931 0.090762
v -0.254940 0.537278 0.075164
v -0.080000 0.526806 0.098657
v 0.314701 0.345392 -0.039955
v 0.314439 0.547611 -0.039955
v 0.153029 0.156092 -0.050964
v 0.161268 0.642767 -0.047592
v 0.338357 0.454849 -0.047775
v 0.161671 0.447434 -0.118425
v 0.252577 0.262279 -0.046451
v 0.252847 0.611084 -0.045892
v 0.257791 0.453208 -0.089361
v 0.078004 0.592992 -0.048581
v 0.072754 0.097674 -0.050964
v 0.079656 0.439256 -0.128651
v 0.328175 0.398631 -0.046451
v 0.157788 0.296494 -0.107190
v 0.254842 0.353118 -0.080773
v 0.077248 0.267444 -0.114019
v 0.328076 0.503201 -0.045892
v 0.162162 0.553931 -0.090762
v 0.254940 0.537278 -0.075164
v 0.080000 0.526806 -0.098657
v 0.361584 0.457814 -0.000000
v 0.350079 0.405486 -0.000000
v 0.323806 0.342622 -0.000000
v 0.254581 0.240484 -0.000000
v 0.323510 0.555819 -0.000000
v 0.350079 0.503523 -0.000000
v 0.071085 0.611404 -0.000000
v 0.158307 0.665809 -0.000000
v 0.064985 0.060704 -0.000000
v 0.149513 0.124878 -0.000000
v 0.255504 0.632109 -0.000000
v -0.314701 0.345392 -0.039955
v -0.314439 0.547611 -0.039955
v 0.000000 0.072009 -0.052987
v 0.000000 0.508374 -0.049710
v -0.153029 0.156092 -0.050964
v -0.161268 0.642767 -0.047592
v -0.338357 0.454849 -0.047775
v 0.000000 0.422411 -0.127311
v -0.161671 0.447434 -0.118425
v -0.252577 0.262279 -0.046451
v -0.252847 0.611084 -0.045892
v -0.257791 0.453208 -0.089361
v -0.078004 0.592992 -0.048581
v -0.072754 0.097674 -0.050964
v -0.079656 0.439256 -0.128651
v -0.328175 0.398631 -0.046451
v 0.000000 0.251849 -0.112918
v -0.157788 0.296494 -0.107190
v -0.254842 0.353118 -0.080773
v -0.077248 0.267444 -0.114019
v -0.328076 0.503201 -0.045892
v 0.000000 0.480998 -0.099908
v -0.162162 0.553931 -0.090762
v -0.254940 0.537278 -0.075164
v -0.080000 0.526806 -0.098657
v -0.361584 0.457814 -0.000000
v -0.350079 0.405486 -0.000000
v -0.323806 0.342622 -0.000000
v -0.254581 0.240484 -0.000000
v -0.323510 0.555819 -0.000000
v -0.350079 0.503523 -0.000000
v 0.000000 0.528224 -0.000000
v -0.071085 0.611404 -0.000000
v -0.158307 0.665809 -0.000000
v -0.064985 0.060704 -0.000000
v 0.000000 0.030430 -0.000000
v -0.149513 0.124878 -0.000000
v -0.255504 0.632109 -0.000000
vn 0.3298 0.2762 0.9027
vn 0.6944 0.2633 0.6696
vn 0.6771 0.4450 0.5860
vn 0.4400 0.6234 0.6464
vn -0.2203 0.4728 0.8531
vn 0.0585 0.3739 0.9256
vn -0.0527 0.7522 0.6568
vn -0.4827 0.6642 0.5707
vn 0.1171 -0.2222 0.9679
vn 0.2728 -0.2239 0.9356
vn 0.1774 0.0873 0.9802
vn 0.0032 0.1317 0.9913
vn 0.4208 -0.1981 0.8853
vn 0.7295 -0.2181 0.6482
vn 0.7328 0.0186 0.6801
vn 0.3637 0.0488 0.9302
vn 0.0000 -0.2258 0.9742
vn 0.0000 0.1147 0.9934
vn 0.0000 0.5062 0.8624
vn 0.0000 0.7978 0.6029
vn 0.0000 -0.6331 0.7740
vn 0.3312 -0.5937 0.7333
vn 0.4990 -0.5536 0.6666
vn 0.6370 -0.4896 0.5954
vn 0.7396 -0.3929 0.5463
vn 0.9653 -0.2611 0.0000
vn 0.9997 0.0232 0.0000
vn 0.8893 -0.4573 0.0000
vn 0.7732 -0.6342 0.0000
vn 0.9495 0.3138 0.0000
vn 0.8356 0.5492 0.0000
vn -0.6324 0.7746 0.0000
vn 0.0000 1.0000 0.0000
vn -0.1085 0.9941 0.0000
vn 0.0000 -1.0000 0.0000
vn 0.4693 -0.8831 0.0000
vn 0.6532 -0.7572 0.0000
vn 0.5300 0.8480 0.0000
vn -0.3298 0.2762 0.9027
vn -0.4400 0.6234 0.6464
vn -0.6771 0.4450 0.5860
vn -0.6944 0.2633 0.6696
vn 0.2203 0.4728 0.8531
vn 0.4827 0.6642 0.5707
vn 0.0527 0.7522 0.6568
vn -0.0585 0.3739 0.9256
vn -0.1171 -0.2222 0.9679
vn -0.0032 0.1317 0.9913
vn -0.1774 0.0873 0.9802
vn -0.2728 -0.2239 0.9356
vn -0.4208 -0.1981 0.8853
vn -0.3637 0.0488 0.9302
vn -0.7328 0.0186 0.6801
vn -0.7295 -0.2181 0.6482
vn -0.3312 -0.5937 0.7333
vn -0.4990 -0.5536 0.6666
vn -0.6370 -0.4896 0.5954
vn -0.7396 -0.3929 0.5463
vn -0.9653 -0.2611 0.0000
vn -0.9997 0.0232 0.0000
vn -0.8893 -0.4573 0.0000
vn -0.7732 -0.6342 0.0000
vn -0.9495 0.3138 0.0000
vn -0.8356 0.5492 0.0000
vn 0.6324 0.7746 0.0000
vn 0.1085 0.9941 0.0000
vn -0.4693 -0.8831 0.0000
vn -0.6532 -0.7572 0.0000
vn -0.5300 0.8480 0.0000
vn 0.3298 0.2762 -0.9027
vn 0.4400 0.6234 -0.6464
vn 0.6771 0.4450 -0.5860
vn 0.6944 0.2633 -0.6696
vn -0.2203 0.4728 -0.8531
vn -0.4827 0.6642 -0.5707
vn -0.0527 0.7522 -0.6568
vn 0.0585 0.3739 -0.9256
vn 0.1171 -0.2222 -0.9679
vn 0.0032 0.1317 -0.9913
vn 0.1774 0.0873 -0.9802
vn 0.2728 -0.2239 -0.9356
vn 0.4208 -0.1981 -0.8853
vn 0.3637 0.0488 -0.9302
vn 0.7328 0.0186 -0.6801
vn 0.7295 -0.2181 -0.6482
vn 0.0000 -0.2258 -0.9742
vn 0.0000 0.1147 -0.9934
vn 0.0000 0.5062 -0.8624
vn 0.0000 0.7978 -0.6029
vn 0.0000 -0.6331 -0.7740
vn 0.3312 -0.5937 -0.7333
vn 0.4990 -0.5536 -0.6666
vn 0.6370 -0.4896 -0.5954
vn 0.7396 -0.3929 -0.5463
vn -0.3298 0.2762 -0.9027
vn -0.6944 0.2633 -0.6696
vn -0.6771 0.4450 -0.5860
vn -0.4400 0.6234 -0.6464
vn 0.2203 0.4728 -0.8531
vn -0.0585 0.3739 -0.9256
vn 0.0527 0.7522 -0.6568
vn 0.4827 0.6642 -0.5707
vn -0.1171 -0.2222 -0.9679
vn -0.2728 -0.2239 -0.9356
vn -0.1774 0.0873 -0.9802
vn -0.0032 0.1317 -0.9913
vn -0.4208 -0.1981 -0.8853
vn -0.7295 -0.2181 -0.6482
vn -0.7328 0.0186 -0.6801
vn -0.3637 0.0488 -0.9302
vn -0.3312 -0.5937 -0.7333
vn -0.4990 -0.5536 -0.6666
vn -0.6370 -0.4896 -0.5954
vn -0.7396 -0.3929 -0.5463
usemtl None
s 1
f 19//1 17//2 2//3 8//4
f 20//5 18//6 4//7 10//8
f 16//9 14//10 6//11 12//12
f 15//13 13//14 5//15 9//16
f 14//10 15//13 9//16 6//11
f 18//6 19//1 8//4 4//7
f 37//17 16//9 12//12 28//18
f 42//19 20//5 10//8 24//20
f 23//21 11//22 16//9 37//17
f 3//23 7//24 15//13 14//10
f 7//24 1//25 13//14 15//13
f 11//22 3//23 14//10 16//9
f 28//18 12//12 20//5 42//19
f 6//11 9//16 19//1 18//6
f 12//12 6//11 18//6 20//5
f 9//16 5//15 17//2 19//1
f 67//26 66//27 5//15 13//14
f 68//28 67//26 13//14 1//25
f 69//29 68//28 1//25 7//24
f 71//30 70//31 2//3 17//2
f 66//27 71//30 17//2 5//15
f 72//32 108//33 24//20 10//8
f 73//34 72//32 10//8 4//7
f 112//35 74//36 11//22 23//21
f 74//36 75//37 3//23 11//22
f 75//37 69//29 7//24 3//23
f 76//38 73//34 4//7 8//4
f 70//31 76//38 8//4 2//3
f 44//39 31//40 22//41 41//42
f 45//43 33//44 26//45 43//46
f 40//47 35//48 29//49 38//50
f 39//51 32//52 27//53 36//54
f 38//50 29//49 32//52 39//51
f 43//46 26//45 31//40 44//39
f 37//17 28//18 35//48 40//47
f 42//19 24//20 33//44 45//43
f 23//21 37//17 40//47 34//55
f 25//56 38//50 39//51 30//57
f 30//57 39//51 36//54 21//58
f 34//55 40//47 38//50 25//56
f 28//18 42//19 45//43 35//48
f 29//49 43//46 44//39 32//52
f 35//48 45//43 43//46 29//49
f 32//52 44//39 41//42 27//53
f 103//59 36//54 27//53 102//60
f 104//61 21//58 36//54 103//59
f 105//62 30//57 21//58 104//61
f 107//63 41//42 22//41 106//64
f 102//60 27//53 41//42 107//63
f 109//65 33//44 24//20 108//33
f 110//66 26//45 33//44 109//65
f 112//35 23//21 34//55 111//67
f 111//67 34//55 25//56 113//68
f 113//68 25//56 30//57 105//62
f 114//69 31//40 26//45 110//66
f 106//64 22//41 31//40 114//69
f 64//70 53//71 47//72 62//73
f 65//74 55//75 49//76 63//77
f 61//78 57//79 51//80 59//81
f 60//82 54//83 50//84 58//85
f 59//81 51//80 54//83 60//82
f 63//77 49//76 53//71 64//70
f 93//86 84//87 57//79 61//78
f 98//88 80//89 55//75 65//74
f 79//90 93//86 61//78 56//91
f 48//92 59//81 60//82 52//93
f 52//93 60//82 58//85 46//94
f 56//91 61//78 59//81 48//92
f 84//87 98//88 65//74 57//79
f 51//80 63//77 64//70 54//83
f 57//79 65//74 63//77 51//80
f 54//83 64//70 62//73 50//84
f 67//26 58//85 50//84 66//27
f 68//28 46//94 58//85 67//26
f 69//29 52//93 46//94 68//28
f 71//30 62//73 47//72 70//31
f 66//27 50//84 62//73 71//30
f 72//32 55//75 80//89 108//33
f 73//34 49//76 55//75 72//32
f 112//35 79//90 56//91 74//36
f 74//36 56//91 48//92 75//37
f 75//37 48//92 52//93 69//29
f 76//38 53//71 49//76 73//34
f 70//31 47//72 53//71 76//38
f 100//95 97//96 78//97 87//98
f 101//99 99//100 82//101 89//102
f 96//103 94//104 85//105 91//106
f 95//107 92//108 83//109 88//110
f 94//104 95//107 88//110 85//105
f 99//100 100//95 87//98 82//101
f 93//86 96//103 91//106 84//87
f 98//88 101//99 89//102 80//89
f 79//90 90//111 96//103 93//86
f 81//112 86//113 95//107 94//104
f 86//113 77//114 92//108 95//107
f 90//111 81//112 94//104 96//103
f 84//87 91//106 101//99 98//88
f 85//105 88//110 100//95 99//100
f 91//106 85//105 99//100 101//99
f 88//110 83//109 97//96 100//95
f 103//59 102//60 83//109 92//108
f 104//61 103//59 92//108 77//114
f 105//62 104//61 77//114 86//113
f 107//63 106//64 78//97 97//96
f 102//60 107//63 97//96 83//109
f 109//65 108//33 80//89 89//102
f 110//66 109//65 89//102 82//101
f 112//35 111//67 90//111 79//90
f 111//67 113//68 81//112 90//111
f 113//68 105//62 86//113 81//112
f 114//69 110//66 82//101 87//98
f 106//64 114//69 87//98 78//97
